<svg width="1244" height="1244" viewBox="0 0 1244 1244" fill="none" xmlns="http://www.w3.org/2000/svg">
<g clip-path="url(#clip0)">
<g filter="url(#filter0_d)">
<path d="M620.521 0V622L181.557 182.935C239.084 125.052 307.472 79.0959 382.8 47.7035C458.128 16.311 538.913 0.0999046 620.521 0V0Z" fill="#E9842A"/>
<path d="M1061.07 181.557L620.623 622V-0.000268909H622.001C703.53 -0.099969 784.278 15.8852 859.62 47.0396C934.961 78.194 1003.42 123.906 1061.07 181.557Z" fill="#1E71AF"/>
<path d="M1244 622H620.555L1061 181.557C1119.08 239.249 1165.15 307.874 1196.56 383.471C1227.97 459.068 1244.09 540.138 1244 622Z" fill="#E2C630"/>
<path d="M1244 622C1244.1 703.858 1227.99 784.925 1196.59 860.521C1165.19 936.117 1119.13 1004.75 1061.07 1062.44L620.623 622H1244Z" fill="#E9842A"/>
<path d="M1061.07 1062.44C1003.42 1120.09 934.961 1165.81 859.619 1196.96C784.277 1228.11 703.529 1244.1 622 1244H620.521V622L1061.07 1062.44Z" fill="#AF3A96"/>
<path d="M620.521 622V1244C538.913 1243.9 458.128 1227.69 382.8 1196.3C307.472 1164.9 239.084 1118.95 181.557 1061.06L620.521 622Z" fill="#1E71AF"/>
<path d="M620.521 622L181.557 1061.06C123.912 1003.41 78.2046 934.955 47.0505 859.614C15.8965 784.274 -0.0919628 703.528 0.000397878 622H620.521Z" fill="#169333"/>
<path d="M620.521 622H0.000397878C-0.0919628 540.472 15.8965 459.726 47.0505 384.385C78.2046 309.044 123.912 240.588 181.557 182.935L620.521 622Z" fill="#F90D25"/>
<path d="M620.588 22.6609V622L197.527 198.939C252.969 143.154 318.88 98.8651 391.48 68.6148C464.08 38.3645 541.938 22.7478 620.588 22.6609Z" fill="#FF9A0A"/>
<path d="M1045.06 197.56L620.623 622V22.6607H622.001C700.556 22.5576 778.359 37.953 850.955 67.9652C923.551 97.9773 989.512 142.017 1045.06 197.56Z" fill="#0B81C9"/>
<path d="M1221.34 622H620.623L1045.06 197.561C1101.01 253.164 1145.4 319.299 1175.66 392.148C1205.91 464.997 1221.44 543.118 1221.34 622Z" fill="#FEE409"/>
<path d="M1221.34 622C1221.44 700.882 1205.91 779.003 1175.66 851.852C1145.4 924.701 1101.01 990.836 1045.06 1046.44L620.623 622H1221.34Z" fill="#FF9A0A"/>
<path d="M1045.06 1046.44C989.506 1101.97 923.542 1146 850.946 1176C778.351 1206 700.55 1221.38 622 1221.27H620.588V622L1045.06 1046.44Z" fill="#AF55AC"/>
<path d="M620.588 622V1221.34C541.938 1221.25 464.08 1205.64 391.48 1175.39C318.88 1145.13 252.969 1100.85 197.527 1045.06L620.588 622Z" fill="#0B81C9"/>
<path d="M620.588 622L197.527 1045.06C141.994 989.505 97.9636 923.542 67.9576 850.947C37.9516 778.352 22.5589 700.552 22.6609 622H620.588Z" fill="#12B865"/>
<path d="M620.588 622H22.6609C22.5545 543.45 37.9419 465.651 67.9421 393.057C97.9423 320.462 141.966 254.497 197.493 198.939L620.588 622Z" fill="#FF283F"/>
</g>
<path d="M696.035 213.366L701.643 199.416L748.154 183.867C757.639 180.775 764.494 177.851 768.72 175.095C773.081 172.282 776.148 168.67 777.921 164.26C779.848 159.466 779.836 155.062 777.886 151.048C775.974 146.939 772.669 143.94 767.971 142.051C763.561 140.278 759.1 139.877 754.589 140.848C750.174 141.857 744.846 144.17 738.603 147.786L730.022 132.977C738.129 127.771 745.589 124.589 752.403 123.431C759.352 122.215 767.092 123.322 775.625 126.752C785.5 130.722 792.388 136.72 796.289 144.748C800.19 152.775 800.309 161.343 796.648 170.452C795.068 174.383 793.162 177.737 790.931 180.516C788.739 183.198 785.742 185.669 781.938 187.926C778.27 190.127 774.457 191.991 770.502 193.519C766.681 194.99 761.449 196.785 754.806 198.903L727.159 207.836L775.049 227.088L768.806 242.62L696.035 213.366ZM820.213 265.29C806.119 259.625 795.861 249.542 789.439 235.044L805.514 226.638C810.905 238.161 817.916 245.656 826.544 249.125C832.585 251.553 838.062 251.918 842.978 250.218C847.931 248.423 851.487 244.841 853.646 239.472C855.688 234.391 855.342 229.574 852.606 225.021C850.004 220.412 845.635 216.873 839.499 214.407C833.459 211.978 826.677 210.979 819.155 211.407L811.345 200.082L834.051 151.91L894.166 176.076L887.864 191.751L842.994 173.714L831.931 196.663C837.975 196.866 843.681 198.046 849.051 200.204C859.309 204.328 866.6 210.433 870.923 218.519C875.245 226.605 875.325 235.825 871.163 246.18C867.039 256.439 860.273 263.296 850.864 266.753C841.552 270.249 831.335 269.761 820.213 265.29ZM735.368 294.922C730.914 293.132 727.911 290.056 726.359 285.696C724.806 281.336 724.963 276.836 726.828 272.197C728.668 267.619 731.657 264.295 735.795 262.222C740.02 260.112 744.391 259.965 748.906 261.78C753.36 263.571 756.363 266.646 757.915 271.006C759.467 275.367 759.311 279.866 757.446 284.505C755.606 289.083 752.573 292.426 748.348 294.536C744.21 296.609 739.883 296.737 735.368 294.922ZM713.684 323.928L787.298 278.076L796.484 281.769L722.87 327.62L713.684 323.928ZM761.262 343.916C756.808 342.126 753.805 339.05 752.253 334.69C750.701 330.33 750.857 325.83 752.722 321.191C754.562 316.613 757.551 313.288 761.69 311.216C765.915 309.106 770.285 308.959 774.801 310.774C779.254 312.564 782.257 315.64 783.809 320C785.362 324.36 785.206 328.86 783.341 333.499C781.5 338.077 778.468 341.42 774.243 343.53C770.104 345.603 765.777 345.731 761.262 343.916ZM738.425 287.852C740.528 288.698 742.559 288.472 744.517 287.176C746.562 285.842 748.119 283.846 749.188 281.186C750.258 278.526 750.472 276.026 749.833 273.685C749.218 271.282 747.89 269.67 745.849 268.85C743.745 268.004 741.671 268.248 739.626 269.582C737.668 270.878 736.154 272.857 735.085 275.516C734.016 278.176 733.789 280.707 734.404 283.11C735.043 285.451 736.384 287.032 738.425 287.852ZM764.32 336.846C766.423 337.692 768.453 337.466 770.412 336.17C772.456 334.836 774.014 332.84 775.083 330.18C776.152 327.52 776.367 325.02 775.727 322.679C775.112 320.276 773.784 318.664 771.743 317.844C769.64 316.998 767.566 317.242 765.521 318.576C763.563 319.872 762.049 321.851 760.98 324.51C759.91 327.17 759.683 329.701 760.298 332.104C760.938 334.445 762.278 336.026 764.32 336.846Z" fill="black"/>
<path d="M547.141 1050.51L541.531 1064.46L495.018 1080C485.533 1083.1 478.677 1086.02 474.451 1088.77C470.09 1091.59 467.022 1095.2 465.249 1099.61C463.321 1104.4 463.332 1108.8 465.282 1112.82C467.193 1116.93 470.497 1119.93 475.195 1121.82C479.605 1123.59 484.066 1123.99 488.577 1123.02C492.992 1122.01 498.321 1119.7 504.564 1116.09L513.143 1130.9C505.035 1136.1 497.575 1139.28 490.761 1140.44C483.812 1141.66 476.072 1140.55 467.539 1137.12C457.664 1133.14 450.777 1127.14 446.878 1119.12C442.978 1111.09 442.86 1102.52 446.523 1093.41C448.104 1089.48 450.01 1086.13 452.241 1083.35C454.433 1080.67 457.431 1078.2 461.235 1075.94C464.904 1073.74 468.716 1071.88 472.672 1070.35C476.493 1068.88 481.725 1067.08 488.369 1064.97L516.017 1056.04L468.129 1036.78L474.375 1021.25L547.141 1050.51ZM422.971 998.571C437.064 1004.24 447.321 1014.32 453.741 1028.82L437.665 1037.22C432.275 1025.7 425.266 1018.2 416.638 1014.73C410.598 1012.31 405.12 1011.94 400.205 1013.64C395.251 1015.43 391.694 1019.02 389.535 1024.38C387.491 1029.47 387.837 1034.28 390.573 1038.83C393.174 1043.45 397.542 1046.98 403.678 1049.45C409.718 1051.88 416.499 1052.88 424.022 1052.45L431.83 1063.78L409.116 1111.95L349.005 1087.77L355.309 1072.1L400.177 1090.14L411.244 1067.2C405.2 1066.99 399.493 1065.81 394.124 1063.65C383.866 1059.53 376.576 1053.42 372.255 1045.33C367.933 1037.25 367.855 1028.03 372.019 1017.67C376.144 1007.42 382.911 1000.56 392.32 997.103C401.633 993.609 411.85 994.098 422.971 998.571ZM507.821 968.951C512.275 970.742 515.277 973.818 516.829 978.179C518.38 982.539 518.224 987.039 516.358 991.678C514.517 996.255 511.527 999.579 507.389 1001.65C503.163 1003.76 498.793 1003.91 494.278 1002.09C489.824 1000.3 486.822 997.224 485.27 992.864C483.719 988.503 483.875 984.004 485.741 979.365C487.582 974.788 490.615 971.445 494.84 969.336C498.979 967.263 503.306 967.135 507.821 968.951ZM529.509 939.949L455.888 985.79L446.703 982.096L520.324 936.255L529.509 939.949ZM481.934 919.954C486.387 921.744 489.39 924.82 490.941 929.181C492.493 933.541 492.336 938.041 490.471 942.68C488.63 947.257 485.64 950.582 481.501 952.654C477.276 954.763 472.906 954.909 468.39 953.093C463.937 951.302 460.935 948.227 459.383 943.866C457.831 939.506 457.988 935.006 459.854 930.367C461.695 925.79 464.728 922.447 468.953 920.338C473.092 918.266 477.419 918.138 481.934 919.954ZM504.763 976.021C502.66 975.175 500.629 975.4 498.671 976.696C496.625 978.029 495.068 980.026 493.998 982.685C492.929 985.345 492.714 987.845 493.353 990.186C493.967 992.589 495.295 994.201 497.336 995.022C499.439 995.868 501.513 995.624 503.559 994.291C505.517 992.995 507.031 991.017 508.101 988.357C509.17 985.697 509.398 983.166 508.783 980.763C508.144 978.422 506.804 976.841 504.763 976.021ZM478.875 927.023C476.772 926.177 474.742 926.402 472.783 927.698C470.738 929.032 469.181 931.028 468.111 933.688C467.041 936.347 466.826 938.848 467.466 941.189C468.08 943.591 469.408 945.203 471.449 946.024C473.552 946.87 475.626 946.626 477.671 945.293C479.63 943.997 481.144 942.019 482.213 939.359C483.283 936.7 483.511 934.168 482.896 931.766C482.257 929.425 480.916 927.844 478.875 927.023Z" fill="black"/>
<path d="M256.786 827.808C264.158 841.089 265.769 855.382 261.619 870.687L243.84 867.082C246.915 854.738 246.196 844.501 241.683 836.369C238.523 830.678 234.5 826.943 229.612 825.164C224.635 823.436 219.616 823.977 214.557 826.785C209.769 829.443 207.002 833.402 206.258 838.661C205.373 843.879 206.535 849.38 209.745 855.162C212.904 860.854 217.539 865.904 223.65 870.312L222.577 884.027L174.589 907.12L143.143 850.472L157.915 842.272L181.386 884.555L204.439 873.708C199.874 869.742 196.187 865.229 193.378 860.17C188.012 850.503 186.198 841.168 187.938 832.166C189.677 823.163 195.426 815.954 205.183 810.538C214.85 805.171 224.426 804.111 233.909 807.356C243.343 810.511 250.968 817.328 256.786 827.808ZM205.701 735.781C212.521 748.068 213.385 760.589 208.292 773.344C203.109 786.149 193.515 796.438 179.512 804.211C165.688 811.885 151.947 814.489 138.288 812.026C124.489 809.522 114.204 802.171 107.433 789.975C100.663 777.778 99.8693 765.277 105.053 752.472C110.186 739.577 119.709 729.267 133.622 721.544C147.445 713.871 161.257 711.286 175.056 713.79C188.715 716.254 198.93 723.584 205.701 735.781ZM190.53 766.894C194.527 758.766 194.519 751.088 190.507 743.86C186.495 736.632 180.078 732.63 171.256 731.854C162.294 731.038 152.934 733.339 143.176 738.755C133.6 744.071 126.813 750.793 122.815 758.922C118.727 767.1 118.665 774.758 122.627 781.895C126.639 789.123 133.126 793.145 142.088 793.961C150.91 794.737 160.2 792.417 169.958 787C179.534 781.684 186.392 774.982 190.53 766.894ZM291.05 767.682C293.379 771.879 293.773 776.159 292.23 780.523C290.688 784.886 287.731 788.282 283.359 790.708C279.046 793.103 274.629 793.8 270.11 792.802C265.5 791.777 262.014 789.137 259.652 784.882C257.322 780.685 256.929 776.405 258.471 772.041C260.014 767.678 262.971 764.282 267.343 761.856C271.656 759.461 276.118 758.776 280.728 759.801C285.247 760.8 288.688 763.427 291.05 767.682ZM326.165 758.826L240.113 748.035L235.308 739.379L321.36 750.17L326.165 758.826ZM301.821 713.323C304.15 717.519 304.544 721.8 303.001 726.163C301.459 730.527 298.502 733.922 294.13 736.349C289.817 738.744 285.4 739.441 280.881 738.443C276.271 737.418 272.785 734.778 270.423 730.523C268.093 726.326 267.7 722.046 269.242 717.682C270.785 713.318 273.742 709.923 278.114 707.496C282.427 705.102 286.889 704.417 291.499 705.442C296.018 706.441 299.459 709.068 301.821 713.323ZM284.22 771.244C283.12 769.262 281.402 768.158 279.064 767.93C276.636 767.677 274.169 768.246 271.662 769.637C269.156 771.028 267.413 772.834 266.435 775.055C265.398 777.308 265.414 779.396 266.481 781.32C267.581 783.302 269.346 784.419 271.774 784.673C274.111 784.9 276.533 784.318 279.039 782.927C281.546 781.536 283.317 779.713 284.354 777.46C285.333 775.24 285.288 773.168 284.22 771.244ZM294.991 716.885C293.891 714.903 292.172 713.798 289.835 713.571C287.407 713.318 284.94 713.887 282.433 715.278C279.927 716.669 278.184 718.475 277.206 720.696C276.169 722.949 276.184 725.037 277.252 726.961C278.352 728.943 280.116 730.06 282.545 730.313C284.882 730.541 287.304 729.959 289.81 728.568C292.317 727.176 294.088 725.354 295.125 723.101C296.104 720.88 296.059 718.808 294.991 716.885Z" fill="black"/>
<path d="M857.456 976.216L856.869 1080.08L905.213 1054.79L912.973 1069.62L845.402 1104.98L838.72 1092.2L838.503 986.132L857.456 976.216ZM749.197 1030.76C762.656 1023.72 776.984 1022.46 792.181 1026.99L788.139 1044.67C775.874 1041.29 765.622 1041.76 757.382 1046.07C751.614 1049.09 747.78 1053.01 745.882 1057.86C744.031 1062.79 744.447 1067.82 747.13 1072.95C749.669 1077.8 753.558 1080.66 758.797 1081.54C763.992 1082.55 769.519 1081.53 775.379 1078.46C781.147 1075.44 786.31 1070.93 790.868 1064.93L804.552 1066.35L826.452 1114.89L769.044 1144.93L761.212 1129.96L804.062 1107.54L793.788 1084.22C789.711 1088.69 785.108 1092.26 779.981 1094.95C770.184 1100.07 760.807 1101.65 751.851 1099.69C742.894 1097.73 735.829 1091.81 730.656 1081.92C725.53 1072.12 724.706 1062.52 728.185 1053.12C731.572 1043.77 738.576 1036.31 749.197 1030.76ZM779.729 948.038C783.982 945.813 788.27 945.525 792.595 947.175C796.919 948.825 800.24 951.865 802.558 956.295C804.845 960.667 805.433 965.099 804.323 969.592C803.185 974.176 800.46 977.595 796.148 979.851C791.895 982.076 787.606 982.364 783.282 980.714C778.957 979.064 775.636 976.024 773.318 971.594C771.031 967.222 770.457 962.745 771.595 958.162C772.705 953.669 775.417 950.294 779.729 948.038ZM771.744 912.715L758.828 998.474L750.056 1003.06L762.972 917.304L771.744 912.715ZM725.652 935.926C729.905 933.701 734.194 933.414 738.518 935.064C742.843 936.714 746.164 939.754 748.482 944.184C750.769 948.555 751.357 952.988 750.247 957.481C749.109 962.064 746.383 965.484 742.071 967.74C737.818 969.965 733.53 970.253 729.205 968.603C724.881 966.953 721.56 963.912 719.242 959.482C716.955 955.111 716.381 950.634 717.519 946.05C718.629 941.557 721.34 938.182 725.652 935.926ZM783.121 954.953C781.113 956.004 779.966 957.695 779.681 960.026C779.367 962.447 779.875 964.928 781.204 967.468C782.533 970.008 784.295 971.794 786.491 972.827C788.718 973.92 790.806 973.956 792.755 972.936C794.764 971.885 795.925 970.149 796.238 967.728C796.523 965.397 796.001 962.961 794.672 960.421C793.343 957.881 791.565 956.065 789.339 954.973C787.143 953.94 785.07 953.933 783.121 954.953ZM729.045 942.842C727.036 943.893 725.89 945.583 725.604 947.915C725.291 950.336 725.799 952.816 727.128 955.356C728.457 957.896 730.219 959.683 732.415 960.716C734.642 961.808 736.73 961.844 738.679 960.825C740.687 959.774 741.848 958.038 742.162 955.617C742.447 953.286 741.925 950.85 740.596 948.31C739.267 945.77 737.489 943.954 735.262 942.862C733.067 941.828 730.994 941.822 729.045 942.842Z" fill="black"/>
<path d="M978.03 420.485C972.963 408.828 972.329 396.484 976.128 383.452L993.63 387.167C990.589 397.278 990.758 406.219 994.136 413.99C997.267 421.192 1002.6 425.689 1010.14 427.482C1017.78 429.233 1026.35 428.212 1035.85 424.417C1026.29 421.59 1019.4 415.344 1015.2 405.678C1010.58 395.064 1009.77 385.279 1012.75 376.322C1015.73 367.364 1022.05 360.785 1031.71 356.583C1041.57 352.298 1051.27 352.193 1060.82 356.268C1070.36 360.343 1077.51 367.83 1082.24 378.728C1087.19 390.1 1087.68 400.817 1083.71 410.878C1079.16 422.435 1068.16 432.003 1050.73 439.584C1034.52 446.629 1019.78 448.476 1006.49 445.126C993.243 441.871 983.757 433.657 978.03 420.485ZM1029.5 384.925C1027.79 390.063 1028.27 395.712 1030.95 401.871C1033.63 408.031 1037.51 412.149 1042.58 414.226C1047.69 416.398 1052.81 416.371 1057.92 414.146C1063.23 411.839 1066.76 408.049 1068.53 402.775C1070.39 397.46 1069.96 391.675 1067.24 385.421C1064.6 379.356 1060.7 375.306 1055.53 373.27C1050.5 371.288 1045.29 371.471 1039.88 373.82C1034.67 376.085 1031.21 379.787 1029.5 384.925ZM1018.89 514.48C1012.84 500.549 1012.61 486.168 1018.22 471.336L1035.57 476.639C1031.32 488.628 1031.04 498.888 1034.75 507.416C1037.35 513.387 1040.99 517.492 1045.69 519.734C1050.47 521.934 1055.52 521.881 1060.83 519.574C1065.85 517.39 1068.98 513.717 1070.23 508.555C1071.62 503.446 1070.99 497.859 1068.36 491.794C1065.76 485.824 1061.63 480.35 1055.98 475.372L1058.37 461.825L1108.36 443.472L1134.19 502.89L1118.7 509.626L1099.42 465.275L1075.43 473.847C1079.59 478.235 1082.82 483.082 1085.13 488.389C1089.54 498.529 1090.44 507.995 1087.84 516.787C1085.24 525.58 1078.82 532.201 1068.59 536.65C1058.45 541.058 1048.82 541.19 1039.69 537.045C1030.6 532.994 1023.67 525.473 1018.89 514.48ZM936.35 472.945C934.436 468.543 934.458 464.245 936.414 460.051C938.371 455.856 941.642 452.762 946.227 450.768C950.751 448.802 955.215 448.533 959.616 449.964C964.106 451.428 967.321 454.392 969.261 458.855C971.175 463.257 971.154 467.556 969.197 471.75C967.241 475.945 963.97 479.039 959.384 481.032C954.86 482.999 950.353 483.25 945.863 481.785C941.461 480.355 938.29 477.408 936.35 472.945ZM900.544 478.371L985.153 497.417L989.1 506.496L904.491 487.45L900.544 478.371ZM920.383 526.011C918.469 521.609 918.491 517.311 920.447 513.116C922.404 508.922 925.675 505.828 930.26 503.834C934.785 501.868 939.248 501.599 943.65 503.029C948.139 504.494 951.354 507.458 953.295 511.921C955.208 516.323 955.187 520.622 953.23 524.816C951.274 529.011 948.003 532.105 943.417 534.098C938.893 536.065 934.386 536.316 929.896 534.851C925.495 533.421 922.324 530.474 920.383 526.011ZM943.491 470.059C944.395 472.137 945.999 473.403 948.304 473.855C950.696 474.341 953.207 474.013 955.836 472.87C958.465 471.727 960.373 470.098 961.562 467.982C962.811 465.84 962.997 463.76 962.12 461.742C961.216 459.663 959.568 458.381 957.176 457.894C954.871 457.442 952.405 457.788 949.776 458.931C947.147 460.073 945.207 461.716 943.958 463.859C942.77 465.974 942.614 468.041 943.491 470.059ZM927.524 523.125C928.428 525.203 930.032 526.469 932.337 526.921C934.729 527.407 937.24 527.079 939.869 525.936C942.498 524.793 944.407 523.164 945.595 521.048C946.844 518.905 947.03 516.825 946.153 514.808C945.25 512.729 943.602 511.447 941.209 510.96C938.905 510.508 936.438 510.854 933.809 511.996C931.18 513.139 929.241 514.782 927.991 516.925C926.803 519.04 926.647 521.107 927.524 523.125Z" fill="black"/>
<path d="M409.747 262.781L370.956 181.68L355.679 195.001L345.355 182.757L367.63 161.794L379.655 156.042L426.806 254.621L409.747 262.781ZM491.578 225.703C478.9 231.766 466.35 231.87 453.927 226.014C441.46 220.064 431.77 209.865 424.859 195.416C418.038 181.154 416.27 167.28 419.557 153.795C422.892 140.173 430.852 130.352 443.436 124.333C456.021 118.314 468.547 118.279 481.014 124.228C493.575 130.133 503.289 140.264 510.155 154.619C516.977 168.882 518.72 182.824 515.385 196.447C512.098 209.931 504.163 219.683 491.578 225.703ZM461.441 208.675C469.312 213.157 476.976 213.615 484.434 210.048C491.891 206.481 496.275 200.318 497.584 191.559C498.941 182.663 497.212 173.181 492.397 163.113C487.67 153.232 481.372 146.05 473.501 141.568C465.585 136.992 457.945 136.465 450.58 139.988C443.123 143.555 438.715 149.786 437.358 158.683C436.049 167.442 437.802 176.855 442.618 186.922C447.344 196.804 453.618 204.054 461.441 208.675ZM470.337 301.419C466.007 303.49 461.71 303.624 457.448 301.819C453.186 300.015 449.976 296.858 447.818 292.347C445.69 287.897 445.261 283.446 446.531 278.996C447.834 274.456 450.68 271.137 455.07 269.037C459.4 266.966 463.696 266.832 467.959 268.636C472.221 270.44 475.431 273.598 477.588 278.108C479.717 282.559 480.13 287.054 478.828 291.593C477.558 296.044 474.727 299.319 470.337 301.419ZM477.049 337.006L493.034 251.766L501.965 247.494L485.98 332.734L477.049 337.006ZM523.944 315.463C519.614 317.534 515.317 317.668 511.055 315.864C506.793 314.059 503.583 310.902 501.425 306.391C499.297 301.941 498.868 297.49 500.138 293.04C501.44 288.5 504.287 285.181 508.677 283.081C513.007 281.01 517.303 280.876 521.566 282.68C525.828 284.484 529.038 287.642 531.195 292.152C533.324 296.603 533.737 301.098 532.435 305.637C531.164 310.088 528.334 313.363 523.944 315.463ZM467.195 294.386C469.24 293.408 470.446 291.76 470.815 289.44C471.215 287.032 470.796 284.535 469.56 281.949C468.323 279.362 466.626 277.514 464.468 276.403C462.282 275.231 460.197 275.12 458.212 276.069C456.167 277.047 454.945 278.741 454.545 281.149C454.176 283.468 454.61 285.921 455.847 288.507C457.084 291.093 458.796 292.972 460.982 294.143C463.139 295.255 465.21 295.336 467.195 294.386ZM520.802 308.43C522.846 307.452 524.053 305.804 524.422 303.484C524.822 301.076 524.403 298.579 523.166 295.993C521.929 293.407 520.232 291.558 518.075 290.447C515.889 289.275 513.804 289.164 511.819 290.113C509.774 291.091 508.552 292.785 508.152 295.193C507.783 297.512 508.217 299.965 509.454 302.551C510.691 305.137 512.403 307.016 514.589 308.187C516.746 309.299 518.817 309.38 520.802 308.43Z" fill="black"/>
<path d="M246.069 455.67C241.682 469.13 233.036 478.356 220.132 483.348C207.129 488.307 192.957 488.287 177.616 483.287C162.473 478.352 151.125 470 143.574 458.232C135.955 446.333 134.323 433.703 138.678 420.341C143.033 406.98 151.712 397.819 164.715 392.86C177.75 387.802 191.889 387.756 207.131 392.724C222.274 397.659 233.655 406.077 241.274 417.975C248.825 429.743 250.424 442.308 246.069 455.67ZM212.707 465.818C221.446 463.192 227.106 457.92 229.686 450.002C232.267 442.084 230.818 434.604 225.339 427.563C219.793 420.391 211.676 415.063 200.986 411.579C190.495 408.16 180.879 407.763 172.14 410.389C163.302 412.984 157.609 418.19 155.061 426.009C152.48 433.927 153.963 441.472 159.508 448.645C164.987 455.686 173.072 460.948 183.761 464.432C194.252 467.851 203.901 468.313 212.707 465.818Z" fill="black"/>
<path d="M1022.68 739.828L1105.39 775.065L1108.06 754.972L1123.89 757.339L1121.03 787.793L1115.8 800.056L1015.27 757.225L1022.68 739.828ZM985.768 821.732C991.276 808.803 1000.63 800.432 1013.82 796.618C1027.11 792.845 1041.12 794.097 1055.86 800.375C1070.4 806.572 1080.9 815.817 1087.34 828.11C1093.84 840.538 1094.35 853.169 1088.89 866.003C1083.42 878.837 1074.04 887.14 1060.75 890.913C1047.42 894.782 1033.44 893.597 1018.8 887.36C1004.25 881.163 993.731 871.85 987.232 859.422C980.788 847.129 980.3 834.566 985.768 821.732ZM1019.64 814.598C1010.77 816.435 1004.71 821.156 1001.47 828.761C998.235 836.366 999.017 843.888 1003.82 851.327C1008.68 858.901 1016.25 864.876 1026.51 869.25C1036.59 873.543 1046.06 874.771 1054.93 872.934C1063.9 871.138 1069.98 866.484 1073.18 858.974C1076.42 851.369 1075.61 843.779 1070.75 836.205C1065.94 828.766 1058.41 822.859 1048.14 818.485C1038.06 814.192 1028.56 812.896 1019.64 814.598ZM951.676 750.867C953.558 746.451 956.694 743.511 961.085 742.049C965.477 740.586 969.972 740.835 974.572 742.795C979.111 744.729 982.374 747.785 984.361 751.966C986.383 756.233 986.441 760.605 984.533 765.083C982.652 769.499 979.516 772.438 975.124 773.9C970.733 775.363 966.237 775.114 961.638 773.154C957.099 771.221 953.818 768.12 951.796 763.853C949.809 759.673 949.769 755.344 951.676 750.867ZM923.122 728.592L967.453 803.132L963.572 812.24L919.242 737.7L923.122 728.592ZM902.161 775.75C904.043 771.334 907.179 768.395 911.57 766.932C915.961 765.47 920.457 765.718 925.057 767.678C929.596 769.612 932.858 772.669 934.846 776.849C936.868 781.116 936.926 785.489 935.018 789.966C933.137 794.382 930 797.321 925.609 798.784C921.218 800.246 916.722 799.997 912.122 798.038C907.584 796.104 904.303 793.003 902.281 788.736C900.293 784.556 900.254 780.227 902.161 775.75ZM958.682 754.069C957.793 756.154 957.977 758.189 959.233 760.173C960.524 762.245 962.489 763.843 965.126 764.967C967.763 766.09 970.259 766.356 972.612 765.765C975.027 765.199 976.666 763.905 977.528 761.881C978.416 759.795 978.215 757.717 976.924 755.645C975.668 753.66 973.721 752.106 971.084 750.983C968.446 749.859 965.92 749.58 963.506 750.145C961.152 750.737 959.544 752.045 958.682 754.069ZM909.167 778.952C908.278 781.037 908.462 783.072 909.718 785.056C911.009 787.128 912.973 788.726 915.611 789.85C918.248 790.973 920.743 791.239 923.097 790.648C925.512 790.082 927.15 788.788 928.013 786.764C928.901 784.679 928.7 782.6 927.408 780.528C926.152 778.544 924.206 776.99 921.569 775.866C918.931 774.742 916.405 774.463 913.99 775.029C911.637 775.62 910.029 776.928 909.167 778.952Z" fill="black"/>
</g>
<defs>
<filter id="filter0_d" x="-4" y="-0.000732422" width="1252" height="1252" filterUnits="userSpaceOnUse" color-interpolation-filters="sRGB">
<feFlood flood-opacity="0" result="BackgroundImageFix"/>
<feColorMatrix in="SourceAlpha" type="matrix" values="0 0 0 0 0 0 0 0 0 0 0 0 0 0 0 0 0 0 127 0"/>
<feOffset dy="4"/>
<feGaussianBlur stdDeviation="2"/>
<feColorMatrix type="matrix" values="0 0 0 0 0 0 0 0 0 0 0 0 0 0 0 0 0 0 0.25 0"/>
<feBlend mode="normal" in2="BackgroundImageFix" result="effect1_dropShadow"/>
<feBlend mode="normal" in="SourceGraphic" in2="effect1_dropShadow" result="shape"/>
</filter>
<clipPath id="clip0">
<rect width="1244" height="1244" fill="white"/>
</clipPath>
</defs>
</svg>
