<svg width="100" height="100" viewBox="0 0 100 100" fill="none" xmlns="http://www.w3.org/2000/svg">
<path d="M76.7468 37.5673C76.746 37.5673 76.745 37.5673 76.7442 37.5673H12.1079C11.4967 37.5666 11.0006 38.0614 11 38.6725C11 38.6733 11 38.6743 11 38.6751V69.7006C10.9994 70.3117 11.4941 70.8078 12.1053 70.8084C12.1061 70.8084 12.1071 70.8084 12.1079 70.8084H56.0606C56.6723 70.8084 57.1684 70.3123 57.1684 69.7006C57.1684 69.0888 56.6723 68.5927 56.0606 68.5927H13.2157V39.783H75.6363V42.5533C75.6357 43.1644 76.1305 43.6605 76.7416 43.6612C76.7424 43.6612 76.7434 43.6612 76.7442 43.6612C77.3553 43.6618 77.8514 43.167 77.8521 42.5559C77.8521 42.5551 77.8521 42.5541 77.8521 42.5533V38.6751C77.8527 38.064 77.3579 37.5681 76.7468 37.5673Z" fill="#CCCCCC"/>
<path d="M69.231 32.4237L17.5219 20.7891C17.2349 20.725 16.9342 20.777 16.6855 20.9339C16.4372 21.0921 16.2615 21.3421 16.1969 21.6294L13.6114 33.2639C13.4786 33.8615 13.8554 34.4536 14.453 34.5864C15.0506 34.7192 15.6426 34.3424 15.7755 33.7448L18.1192 23.1949L68.7449 34.5851C68.8251 34.6037 68.907 34.6129 68.9893 34.6123C69.601 34.6111 70.0961 34.1142 70.0952 33.5025C70.0942 32.9852 69.7355 32.5376 69.231 32.4237Z" fill="#CCCCCC"/>
<path d="M62.9521 26.0131L31.9267 13.0858C31.3874 12.861 30.7661 13.0919 30.5047 13.6145L27.9192 18.7854C27.6272 19.3255 27.8282 20.0001 28.3684 20.2921C28.9085 20.5841 29.5831 20.3831 29.8751 19.8429C29.8866 19.8217 29.8974 19.8001 29.9074 19.7781V19.7807L32.0288 15.5353L62.0963 28.0632C62.6625 28.2994 63.3131 28.0321 63.5493 27.4659C63.7856 26.9 63.5183 26.2495 62.9521 26.0131Z" fill="#CCCCCC"/>
<path d="M63.7353 42.7384H53.475C52.8632 42.7384 52.3671 43.2345 52.3671 43.8463C52.3671 44.4581 52.8632 44.9541 53.475 44.9541H63.7353C64.3471 44.9541 64.8432 44.4581 64.8432 43.8463C64.8432 43.2345 64.3471 42.7384 63.7353 42.7384Z" fill="#CCCCCC"/>
<path d="M43.1335 42.8121C36.8507 42.8121 31.7575 47.9053 31.7575 54.1881C31.7639 60.4682 36.8534 65.5576 43.1335 65.5641C49.4163 65.5641 54.5095 60.4709 54.5095 54.1881C54.5095 47.9053 49.4163 42.8121 43.1335 42.8121ZM43.1335 63.4957C37.9929 63.4957 33.8258 59.3286 33.8258 54.1881C33.8315 49.05 37.9954 44.8861 43.1335 44.8805C48.274 44.8805 52.4411 49.0476 52.4411 54.1881C52.4411 59.3286 48.274 63.4957 43.1335 63.4957Z" fill="#CCCCCC"/>
<path d="M74.1588 46.4318C67.3074 46.4318 59.9388 48.0503 59.9388 51.6027V82.6281C59.9388 86.1805 67.3074 87.799 74.1588 87.799C81.0103 87.799 88.3788 86.1805 88.3788 82.6281V51.6027C88.3788 48.0503 81.0103 46.4318 74.1588 46.4318ZM85.7934 82.6087C85.5982 83.3262 81.7213 85.2135 74.1588 85.2135C66.5964 85.2135 62.7195 83.3262 62.5243 82.6281V80.5959C65.2752 81.9817 69.8192 82.6281 74.1588 82.6281C78.4985 82.6281 83.0437 81.9753 85.7934 80.5946V82.6087ZM85.7934 77.4378C85.5982 78.1553 81.7213 80.0426 74.1588 80.0426C66.5964 80.0426 62.7195 78.1553 62.5243 77.4572V75.425C65.2752 76.8108 69.8192 77.4572 74.1588 77.4572C78.4985 77.4572 83.0437 76.8044 85.7934 75.4237V77.4378ZM85.7934 72.2669C85.5982 72.9844 81.7213 74.8717 74.1588 74.8717C66.5964 74.8717 62.7195 72.9844 62.5243 72.2863V70.2541C65.2752 71.6399 69.8192 72.2863 74.1588 72.2863C78.4985 72.2863 83.0437 71.6335 85.7934 70.2528V72.2669ZM85.7934 67.096C85.5982 67.8135 81.7213 69.7008 74.1588 69.7008C66.5964 69.7008 62.7195 67.8135 62.5243 67.1154V65.0832C65.2752 66.469 69.8192 67.1154 74.1588 67.1154C78.4985 67.1154 83.0437 66.4626 85.7934 65.0819V67.096ZM85.7934 61.9251C85.5982 62.6425 81.7213 64.5299 74.1588 64.5299C66.5964 64.5299 62.7195 62.6425 62.5243 61.9445V59.9123C65.2752 61.2917 69.8192 61.9445 74.1588 61.9445C78.4985 61.9445 83.0437 61.2917 85.7934 59.911V61.9251ZM85.7934 56.7542C85.5982 57.4716 81.7213 59.359 74.1588 59.359C66.5964 59.359 62.7195 57.4716 62.5243 56.7736V54.7414C65.2752 56.1207 69.8192 56.7736 74.1588 56.7736C78.4985 56.7736 83.0437 56.1207 85.7934 54.7401V56.7542ZM74.1588 54.1881C66.608 54.1881 62.7324 52.3059 62.5243 51.6259V51.6182C62.7324 50.8981 66.608 49.0172 74.1588 49.0172C81.6567 49.0172 85.5348 50.871 85.7934 51.6027C85.5348 52.3344 81.6567 54.1881 74.1588 54.1881Z" fill="#CCCCCC"/>
<path d="M32.7914 63.4207H23.0197L18.3866 58.3532V49.9505L23.5032 44.9541H32.7914C33.4032 44.9541 33.8993 44.4581 33.8993 43.8463C33.8993 43.2345 33.4032 42.7384 32.7914 42.7384H23.0533C22.7638 42.7378 22.4853 42.8506 22.2777 43.0525L16.5031 48.6849C16.2874 48.937 16.1691 49.2581 16.1696 49.5899V58.7837C16.1696 59.0602 16.2728 59.3267 16.4591 59.5309L21.7115 65.2758C21.9214 65.5056 22.2184 65.6366 22.5298 65.6365H32.7914C33.4032 65.6365 33.8993 65.1404 33.8993 64.5286C33.8993 63.9168 33.4034 63.4207 32.7914 63.4207Z" fill="#CCCCCC"/>
</svg>
