<svg width="100" height="100" viewBox="0 0 100 100" fill="none" xmlns="http://www.w3.org/2000/svg">
<path d="M80.7386 40.6949H62.5372V32.2008C62.5372 31.879 62.4094 31.5704 62.1818 31.3428C61.9542 31.1153 61.6456 30.9874 61.3238 30.9874H54.0432V21.28C54.0432 21.0405 53.9724 20.8063 53.8396 20.607C53.7068 20.4077 53.518 20.2522 53.2969 20.16L38.7358 14.0928C38.4366 13.9691 38.1006 13.9691 37.8014 14.0928L23.2403 20.16C23.0192 20.2522 22.8304 20.4077 22.6976 20.607C22.5648 20.8063 22.494 21.0405 22.494 21.28V30.9874H15.2134C14.8916 30.9874 14.583 31.1153 14.3554 31.3428C14.1278 31.5704 14 31.879 14 32.2008V75.8843C14 76.2061 14.1278 76.5148 14.3554 76.7424C14.583 76.9699 14.8916 77.0978 15.2134 77.0978H18.9253C19.2317 79.7604 20.5066 82.2174 22.5071 84.001C24.5077 85.7846 27.0944 86.7702 29.7746 86.7702C32.4548 86.7702 35.0414 85.7846 37.042 84.001C39.0426 82.2174 40.3175 79.7604 40.6239 77.0978H60.1819C60.4883 79.7604 61.7632 82.2174 63.7638 84.001C65.7644 85.7846 68.351 86.7702 71.0312 86.7702C73.7114 86.7702 76.2981 85.7846 78.2987 84.001C80.2992 82.2174 81.5741 79.7604 81.8805 77.0978H85.5924C85.9142 77.0978 86.2228 76.9699 86.4504 76.7424C86.678 76.5148 86.8058 76.2061 86.8058 75.8843V46.762C86.8039 45.1535 86.164 43.6114 85.0266 42.474C83.8892 41.3366 82.3472 40.6968 80.7386 40.6949ZM67.3909 57.6829V47.9754H72.2446V57.6829H67.3909ZM74.6715 47.9754H84.3789V57.6829H74.6715V47.9754ZM24.9209 22.0893L38.2686 16.527L51.6163 22.0893V32.0285C51.62 33.4632 51.3392 34.8844 50.7902 36.2099C50.2411 37.5354 49.4348 38.7389 48.4177 39.7508L38.2686 49.8999L28.1195 39.7508C27.1024 38.7389 26.2961 37.5354 25.747 36.2099C25.198 34.8844 24.9172 33.4632 24.9209 32.0285V22.0893ZM16.4269 33.4143H22.568C22.8773 36.4611 24.2327 39.3066 26.4037 41.4666L37.4107 52.4736C37.6383 52.7011 37.9468 52.8289 38.2686 52.8289C38.5904 52.8289 38.8989 52.7011 39.1265 52.4736L50.1335 41.4666C52.3045 39.3066 53.6599 36.4611 53.9692 33.4143H60.1103V74.6709H40.6239C40.3175 72.0082 39.0426 69.5512 37.042 67.7677C35.0414 65.9841 32.4548 64.9985 29.7746 64.9985C27.0944 64.9985 24.5077 65.9841 22.5071 67.7677C20.5066 69.5512 19.2317 72.0082 18.9253 74.6709H16.4269V33.4143ZM29.7746 84.3783C28.0946 84.3783 26.4524 83.8802 25.0556 82.9468C23.6587 82.0135 22.57 80.6869 21.9271 79.1348C21.2843 77.5828 21.116 75.8749 21.4438 74.2272C21.7715 72.5796 22.5805 71.0661 23.7684 69.8782C24.9563 68.6902 26.4698 67.8813 28.1175 67.5535C29.7652 67.2258 31.473 67.394 33.0251 68.0369C34.5772 68.6798 35.9038 69.7685 36.8371 71.1653C37.7704 72.5621 38.2686 74.2044 38.2686 75.8843C38.266 78.1363 37.3703 80.2953 35.7779 81.8877C34.1855 83.48 32.0266 84.3758 29.7746 84.3783ZM71.0312 84.3783C69.3512 84.3783 67.709 83.8802 66.3122 82.9468C64.9154 82.0135 63.8267 80.6869 63.1838 79.1348C62.5409 77.5828 62.3727 75.8749 62.7004 74.2272C63.0281 72.5796 63.8371 71.0661 65.025 69.8782C66.2129 68.6902 67.7264 67.8813 69.3741 67.5535C71.0218 67.2258 72.7296 67.394 74.2817 68.0369C75.8338 68.6798 77.1604 69.7685 78.0937 71.1653C79.027 72.5621 79.5252 74.2044 79.5252 75.8843C79.5226 78.1363 78.6269 80.2953 77.0345 81.8877C75.4422 83.48 73.2832 84.3758 71.0312 84.3783ZM81.8805 74.6709C81.6431 72.5285 80.7764 70.5045 79.3898 68.8543C78.0031 67.204 76.1587 66.0016 74.0892 65.3987C72.0198 64.7958 69.8181 64.8195 67.7621 65.4668C65.7061 66.1141 63.888 67.356 62.5372 69.0357V43.1217H80.7386C81.4889 43.1248 82.2198 43.3597 82.8315 43.7941C83.4431 44.2285 83.9056 44.8413 84.1557 45.5486H66.1775C65.8557 45.5486 65.547 45.6764 65.3195 45.904C65.0919 46.1315 64.9641 46.4402 64.9641 46.762V58.8963C64.9641 59.2181 65.0919 59.5268 65.3195 59.7543C65.547 59.9819 65.8557 60.1097 66.1775 60.1097H84.3789V74.6709H81.8805Z" fill="#CCCCCC"/>
<path d="M29.7746 72.244C29.0546 72.244 28.3508 72.4575 27.7522 72.8575C27.1536 73.2575 26.687 73.8261 26.4114 74.4912C26.1359 75.1564 26.0638 75.8883 26.2043 76.5945C26.3447 77.3006 26.6915 77.9493 27.2006 78.4584C27.7097 78.9675 28.3583 79.3142 29.0644 79.4547C29.7706 79.5951 30.5025 79.523 31.1677 79.2475C31.8329 78.972 32.4014 78.5054 32.8014 77.9067C33.2014 77.3081 33.4149 76.6043 33.4149 75.8843C33.4149 74.9188 33.0314 73.9929 32.3487 73.3102C31.666 72.6275 30.7401 72.244 29.7746 72.244ZM29.7746 77.0977C29.5346 77.0977 29.3 77.0266 29.1005 76.8932C28.9009 76.7599 28.7454 76.5704 28.6536 76.3487C28.5617 76.1269 28.5377 75.883 28.5845 75.6476C28.6313 75.4122 28.7469 75.196 28.9166 75.0263C29.0863 74.8566 29.3025 74.741 29.5379 74.6942C29.7733 74.6474 30.0173 74.6714 30.239 74.7632C30.4607 74.8551 30.6502 75.0106 30.7836 75.2102C30.9169 75.4097 30.9881 75.6443 30.9881 75.8843C30.9881 76.2061 30.8602 76.5148 30.6327 76.7423C30.4051 76.9699 30.0965 77.0977 29.7746 77.0977Z" fill="#CCCCCC"/>
<path d="M71.0312 72.244C70.3112 72.244 69.6074 72.4575 69.0088 72.8575C68.4101 73.2575 67.9435 73.8261 67.668 74.4912C67.3925 75.1564 67.3204 75.8883 67.4608 76.5945C67.6013 77.3006 67.948 77.9493 68.4571 78.4584C68.9662 78.9675 69.6149 79.3142 70.321 79.4547C71.0272 79.5951 71.7591 79.523 72.4243 79.2475C73.0894 78.972 73.658 78.5054 74.058 77.9067C74.458 77.3081 74.6715 76.6043 74.6715 75.8843C74.6715 74.9188 74.2879 73.9929 73.6053 73.3102C72.9226 72.6275 71.9967 72.244 71.0312 72.244ZM71.0312 77.0977C70.7912 77.0977 70.5566 77.0266 70.357 76.8932C70.1575 76.7599 70.002 76.5704 69.9101 76.3487C69.8183 76.1269 69.7943 75.883 69.8411 75.6476C69.8879 75.4122 70.0035 75.196 70.1732 75.0263C70.3429 74.8566 70.5591 74.741 70.7945 74.6942C71.0298 74.6474 71.2738 74.6714 71.4955 74.7632C71.7173 74.8551 71.9068 75.0106 72.0401 75.2102C72.1735 75.4097 72.2446 75.6443 72.2446 75.8843C72.2446 76.2061 72.1168 76.5148 71.8892 76.7423C71.6617 76.9699 71.353 77.0977 71.0312 77.0977Z" fill="#CCCCCC"/>
<path d="M35.8417 60.1099H38.2685V62.5367H35.8417V60.1099Z" fill="#CCCCCC"/>
<path d="M40.6955 60.1099H55.2567V62.5367H40.6955V60.1099Z" fill="#CCCCCC"/>
<path d="M38.2686 64.9635H40.6954V67.3904H38.2686V64.9635Z" fill="#CCCCCC"/>
<path d="M43.1223 64.9635H55.2566V67.3904H43.1223V64.9635Z" fill="#CCCCCC"/>
<path d="M38.2686 35.8411C38.5904 35.841 38.899 35.7131 39.1265 35.4856L45.9908 28.6212L44.275 26.9054L38.2686 32.9119L35.6949 30.337L33.9791 32.0528L37.4107 35.4856C37.6382 35.7131 37.9468 35.841 38.2686 35.8411Z" fill="#CCCCCC"/>
<path d="M37.4107 47.3251C37.6382 47.5526 37.9468 47.6804 38.2686 47.6804C38.5903 47.6804 38.8989 47.5526 39.1265 47.3251L47.5598 38.893C48.4639 37.9935 49.1806 36.9237 49.6686 35.7455C50.1566 34.5672 50.4062 33.3039 50.4029 32.0286V23.7069C50.4029 23.4674 50.332 23.2333 50.1993 23.034C50.0665 22.8347 49.8776 22.6791 49.6566 22.5869L38.7357 18.0366C38.4366 17.9128 38.1006 17.9128 37.8014 18.0366L26.8805 22.5869C26.6595 22.6791 26.4707 22.8347 26.3379 23.034C26.2051 23.2333 26.1343 23.4674 26.1343 23.7069V32.0286C26.131 33.3039 26.3805 34.5672 26.8685 35.7455C27.3565 36.9237 28.0733 37.9935 28.9773 38.893L37.4107 47.3251ZM28.5611 24.5163L38.2686 20.4707L47.976 24.5163V32.0286C47.9783 32.9849 47.7911 33.9322 47.4251 34.8157C47.0592 35.6992 46.5218 36.5014 45.844 37.176L38.2686 44.7514L30.6931 37.176C30.0154 36.5013 29.4781 35.6991 29.1121 34.8156C28.7462 33.9321 28.5589 32.9849 28.5611 32.0286V24.5163Z" fill="#CCCCCC"/>
</svg>
