<svg width="100" height="100" viewBox="0 0 100 100" fill="none" xmlns="http://www.w3.org/2000/svg">
<path d="M34.7952 56.3137C34.4628 56.1963 34.1228 56.073 33.7838 55.9446V50.5313C34.6358 50.7352 35.1436 51.166 35.1888 51.2054C35.6539 51.6266 36.3724 51.595 36.7987 51.1329C37.2274 50.6681 37.1981 49.9439 36.7333 49.5152C36.6682 49.4552 35.5745 48.4697 33.7838 48.2011V47.0955C33.7838 46.4634 33.2712 45.9508 32.6391 45.9508C32.0069 45.9508 31.4943 46.4634 31.4943 47.0955V48.289C31.3244 48.3264 31.1521 48.3694 30.9759 48.4226C29.3383 48.9159 28.1148 50.3174 27.7826 52.0801C27.4798 53.6872 27.9946 55.237 29.1263 56.1247C29.7259 56.595 30.4723 57.0258 31.4945 57.4808V64.3447C30.6102 64.2796 29.9976 64.0637 28.9939 63.407C28.4649 63.0608 27.7552 63.2092 27.4093 63.7383C27.0632 64.2674 27.2115 64.9768 27.7406 65.3229C29.2039 66.2802 30.2038 66.5656 31.4945 66.6383V67.8762C31.4945 68.5084 32.0071 69.021 32.6392 69.021C33.2714 69.021 33.7839 68.5084 33.7839 67.8762V66.5473C36.3522 66.0433 37.8524 63.9256 38.1849 61.9474C38.6122 59.4041 37.2818 57.1927 34.7952 56.3137ZM30.5389 54.3233C30.0825 53.9651 29.8882 53.2682 30.0322 52.5041C30.1612 51.8195 30.6131 50.9969 31.4942 50.6643V54.9338C31.1347 54.7388 30.8096 54.5354 30.5389 54.3233ZM35.9268 61.568C35.7506 62.6159 35.0208 63.7267 33.7836 64.1694V58.3834C33.8662 58.4131 33.947 58.4424 34.032 58.4725C36.1475 59.22 36.0172 61.0307 35.9268 61.568Z" fill="#CCCCCC"/>
<path d="M89.9369 54.8408C89.74 53.9462 89.1094 53.2236 88.2496 52.9076L84.9731 51.7033C84.38 51.4853 83.7219 51.7894 83.5038 52.3829C83.2857 52.9763 83.5899 53.6342 84.1834 53.8522L87.4599 55.0565C87.6304 55.1192 87.6841 55.2565 87.7008 55.3327C87.7176 55.4089 87.7266 55.556 87.5979 55.6845L58.3501 84.9324C58.2213 85.0612 58.0741 85.052 57.9982 85.0353C57.922 85.0185 57.7848 84.965 57.7222 84.7941L53.6118 73.6109C53.3409 72.8739 52.7629 72.2961 52.0261 72.0253L40.843 67.9152C40.6724 67.8524 40.6188 67.7152 40.602 67.639C40.5852 67.5627 40.5762 67.4157 40.7048 67.2872L69.9528 38.0393C70.0815 37.9106 70.2282 37.9197 70.3046 37.9364C70.3808 37.9532 70.518 38.0067 70.5806 38.1774L74.6908 49.3605C74.9616 50.0976 75.5397 50.6754 76.2766 50.9462L79.121 51.9916C79.7144 52.2099 80.3723 51.9055 80.5903 51.312C80.8083 50.7186 80.5042 50.0607 79.9106 49.8427L77.0662 48.7972C76.9611 48.7586 76.8786 48.676 76.84 48.5708L72.7298 37.3877C72.4138 36.5279 71.6913 35.8973 70.7968 35.7005C69.9026 35.5034 68.9818 35.7728 68.3339 36.4204L67.2267 37.5276V26.1705C67.2267 24.6977 66.0284 23.4994 64.5556 23.4994H52.8964C53.963 21.4257 53.6297 18.8122 51.8945 17.0771C50.4089 15.5916 48.2547 15.1035 46.3246 15.7207C45.5791 13.5584 43.5252 12 41.1129 12C38.7008 12 36.6469 13.5581 35.9013 15.7201C33.9714 15.1018 31.8193 15.5889 30.3314 17.077C29.2902 18.118 28.7168 19.5022 28.7168 20.9747C28.7168 21.8677 28.9291 22.7279 29.3275 23.4993H28.3672C27.735 23.4993 27.2225 24.0119 27.2225 24.644C27.2225 25.2762 27.735 25.7887 28.3672 25.7887H36.5249V36.6233C35.2584 36.3928 33.9691 36.2735 32.6728 36.2735C30.2868 36.2735 28.0415 36.6454 25.8927 37.361L17.2888 37.3613V26.1703C17.2888 25.9598 17.4599 25.7887 17.6704 25.7887H22.8895C23.5216 25.7887 24.0342 25.2762 24.0342 24.644C24.0342 24.0119 23.5216 23.4993 22.8895 23.4993H17.6701C16.1973 23.4993 14.9991 24.6975 14.9991 26.1703V45.3932C14.9991 45.4002 15 45.407 15.0001 45.4141C12.482 48.9545 11 53.2806 11 57.9462C11 62.6013 12.46 67.0411 15.222 70.7855C15.4465 71.0898 15.7929 71.2507 16.1441 71.2507C16.3802 71.2507 16.6183 71.1781 16.8227 71.0272C17.3316 70.6519 17.4397 69.9352 17.0643 69.4263C14.5947 66.0784 13.2893 62.1085 13.2893 57.946C13.2893 47.2582 21.9845 38.5631 32.6724 38.5631C41.6308 38.5631 49.332 44.5986 51.4842 53.2698L49.5463 55.2077C48.9666 51.6086 47.2511 48.2938 44.5907 45.7032C41.3783 42.5753 37.1456 40.8526 32.6724 40.8526C23.247 40.8526 15.5788 48.5207 15.5788 57.946C15.5788 67.3714 23.2468 75.0397 32.6724 75.0397C36.5625 75.0397 40.3304 73.7082 43.3577 71.2787L45.8114 72.1804C42.2445 75.4698 37.5446 77.3291 32.6724 77.3291C28.2502 77.3291 23.9217 75.794 20.4843 73.0068C19.9933 72.6086 19.2725 72.6839 18.8742 73.175C18.476 73.6661 18.5513 74.3868 19.0424 74.7852C22.8863 77.9022 27.7269 79.6187 32.6724 79.6187C38.5077 79.6187 44.1212 77.235 48.1934 73.0559L51.2363 74.1742C51.3415 74.2129 51.4241 74.2955 51.4626 74.4007L55.5728 85.5838C55.8888 86.4436 56.6114 87.0742 57.5057 87.2711C57.6985 87.3135 57.8926 87.3343 58.0849 87.3343C58.7845 87.3343 59.4605 87.0592 59.9687 86.5511L89.2168 57.3034C89.8643 56.6558 90.1336 55.7353 89.9369 54.8408ZM17.2885 42.6967V39.6511H21.0666C19.6951 40.5242 18.4282 41.5471 17.2885 42.6967ZM64.9371 26.1705V37.3615H45.7009V25.7889H64.5555C64.766 25.7889 64.9371 25.9602 64.9371 26.1705ZM50.2756 18.696C51.5321 19.9526 51.5321 21.9972 50.2758 23.2535C50.2256 23.3038 50.1283 23.3871 49.9593 23.4994H44.382C46.0436 20.3738 46.4744 18.8445 46.5856 18.0761C47.812 17.4765 49.2935 17.7139 50.2756 18.696ZM41.1127 14.2895C42.8898 14.2895 44.3355 15.7352 44.3355 17.5121C44.3355 17.8429 44.1473 19.2458 41.7743 23.4993H40.4512C38.0788 19.2469 37.8901 17.8435 37.8901 17.5121C37.8901 15.7352 39.3357 14.2895 41.1127 14.2895ZM31.9501 23.2536C31.3414 22.6449 31.0061 21.8356 31.0061 20.9748C31.0061 20.114 31.3414 19.3047 31.9501 18.696C32.9339 17.7122 34.4133 17.4761 35.64 18.0767C35.7514 18.8454 36.1819 20.374 37.8435 23.4994H32.2664C32.0975 23.3873 32.0004 23.3039 31.9501 23.2536ZM38.814 25.7889H43.4114V37.3615H39.4477C39.4426 37.3615 39.4378 37.3621 39.4327 37.3622C39.2275 37.2946 39.0211 37.2311 38.814 37.1697V25.7889ZM46.2178 41.039C45.595 40.5392 44.9459 40.0765 44.2752 39.6511H64.9372V39.8171L60.5058 44.2485H49.4512C48.4924 43.0738 47.4096 41.9956 46.2178 41.039ZM51.0862 46.5379H58.2162L53.3377 51.4165C52.7934 49.7032 52.0343 48.0633 51.0862 46.5379ZM32.6725 72.7504C24.5095 72.7504 17.8685 66.1093 17.8685 57.9464C17.8685 49.7834 24.5096 43.1423 32.6725 43.1423C40.531 43.1423 47.1172 49.4697 47.4613 57.2932L39.086 65.6684C38.4384 66.316 38.1692 67.2367 38.3661 68.1312C38.563 69.0256 39.1937 69.7482 40.0533 70.0642L40.775 70.3294C38.3777 71.9009 35.5639 72.7504 32.6725 72.7504Z" fill="#CCCCCC"/>
<path d="M67.1302 71.1299C67.2743 71.1299 67.4212 71.1024 67.5628 71.0444C68.1481 70.8053 68.4286 70.1369 68.1893 69.5516L61.598 53.427C61.359 52.8419 60.6908 52.5609 60.1052 52.8005C59.52 53.0397 59.2395 53.7081 59.4788 54.2934L66.07 70.418C66.2513 70.8614 66.6789 71.1299 67.1302 71.1299Z" fill="#CCCCCC"/>
<path d="M53.5205 58.2004C52.7185 59.0025 52.3262 60.1039 52.416 61.3017C52.5011 62.4348 53.0146 63.5257 53.8618 64.3729C54.7092 65.2203 55.7999 65.7338 56.9332 65.8187C57.0456 65.8272 57.1571 65.8314 57.2676 65.8314C58.335 65.8314 59.3076 65.441 60.0345 64.7142C60.8365 63.9122 61.2287 62.8108 61.1389 61.613C61.0539 60.4797 60.5404 59.389 59.6931 58.5416C58.8457 57.6942 57.755 57.1807 56.6217 57.0958C55.423 57.0056 54.3224 57.3984 53.5205 58.2004ZM58.0743 60.1606C58.5342 60.6208 58.812 61.1974 58.8559 61.7843C58.8951 62.3066 58.7387 62.7723 58.4154 63.0955C58.0923 63.4186 57.6262 63.5745 57.1044 63.5359C56.5174 63.4919 55.9408 63.2143 55.4807 62.7542C55.0207 62.2941 54.743 61.7175 54.699 61.1307C54.6598 60.6084 54.8163 60.1427 55.1395 59.8195C55.4301 59.5289 55.8357 59.3733 56.2945 59.3733C56.3458 59.3733 56.398 59.3753 56.4506 59.3791C57.0375 59.4229 57.6142 59.7005 58.0743 60.1606C58.0741 60.1606 58.0741 60.1606 58.0743 60.1606Z" fill="#CCCCCC"/>
<path d="M71.4706 67.1595C72.5382 67.1595 73.5107 66.7691 74.2374 66.0424C75.8451 64.4348 75.692 61.6658 73.8963 59.8698C73.8963 59.8698 73.8963 59.8698 73.8961 59.8698C72.1004 58.0739 69.3314 57.921 67.7236 59.5285C66.116 61.1361 66.2691 63.9051 68.0649 65.7009C68.9123 66.5483 70.0031 67.0618 71.1364 67.1467C71.2489 67.1553 71.3603 67.1595 71.4706 67.1595ZM69.3427 61.1475C69.6459 60.8443 70.0571 60.6973 70.4993 60.6973C71.0997 60.6973 71.7571 60.9687 72.2773 61.4888C73.1805 62.392 73.3336 63.7087 72.6184 64.4237C72.2953 64.7466 71.8295 64.9031 71.3075 64.864C70.7206 64.8201 70.1438 64.5425 69.6838 64.0824C68.7807 63.179 68.6277 61.8625 69.3427 61.1475Z" fill="#CCCCCC"/>
</svg>
