<svg width="311" height="249" viewBox="0 0 311 249" fill="none" xmlns="http://www.w3.org/2000/svg">
<path d="M279.746 30.2002C275.128 32.184 270.437 33.4772 265.627 35.0087C260.984 36.5638 254.865 38.3355 251.368 42.009C250.964 42.4622 250.56 42.9154 250.132 43.5354C255.997 47.1716 260.938 53.7391 260.971 60.1232C260.93 64.6255 257.645 66.798 253.478 67.3996C247.214 68.3853 244.513 62.2195 244.125 57.1461C243.81 53.359 244.375 48.7606 245.941 44.8993C243.867 43.9256 241.723 43.4523 239.412 43.5509C233.076 43.846 228.249 49.713 227.09 55.5033C224.488 68.4897 236.494 84.647 250.024 84.0081C250.881 83.9592 250.978 85.0786 250.192 85.2227C236.76 87.5767 226.092 73.9901 224.05 61.9633C222.176 50.5556 231.234 38.2268 243.553 40.734C244.792 40.9943 246.079 41.5164 247.366 42.0387C247.913 41.1803 248.46 40.322 249.15 39.654C252.265 36.2668 257.456 34.4488 261.67 32.9182C267.146 30.8854 272.956 29.4954 278.384 27.2007C280.432 26.5545 281.556 29.4353 279.746 30.2002ZM248.18 60.9516C249.735 65.5946 257.762 65.3685 257.731 60.1755C257.725 56.0068 254.646 51.914 251.807 49.131C250.829 48.2272 249.851 47.3234 248.683 46.5628C247.022 51.0913 246.864 57.023 248.18 60.9516Z" fill="#1D1D1B"/>
<path d="M294.644 20.4834C289.961 27.1363 285.231 34.1228 278.806 39.2537C277.855 39.9697 276.519 38.5901 277.399 37.7789C282.275 32.7693 286.364 27.3083 290.167 21.4666C285.523 21.8306 280.473 22.0523 276.563 20.2237C274.966 19.4876 275.558 17.1046 277.321 17.2688C282.682 17.8565 287.733 18.2304 293.14 17.889C294.616 17.6725 295.5 19.2434 294.644 20.4834Z" fill="#1D1D1B"/>
<path d="M107.83 59.3433C109.522 61.7439 111.095 65.2172 114.049 72.7186C119.363 85.4299 118.822 87.3539 117.641 88.5763C116.423 89.54 110.831 86.3699 105.26 79.5018C102.359 76.2159 102.25 75.4395 99.9266 70.4885C98.8015 68.2718 96.13 64.6896 95.38 63.2118C93.3953 58.7409 89.0145 48.8013 91.523 47.3916C93.4641 45.7979 102.45 51.9202 107.83 59.3433Z" fill="#72AE0F"/>
<path d="M99.4673 70.3333C109.794 87.2725 107.445 93.1228 108.483 92.9764C111.855 92.5006 111.539 71.5206 111.326 68.1343C111.258 65.7786 110.449 63.7904 110.449 63.7904C110.008 62.5386 109.603 61.5445 108.938 60.587C105.913 56.0207 99.3849 45.3784 94.047 46.9201C91.7489 47.5072 90.2968 50.3402 90.1053 52.7324C89.9865 55.64 89.795 58.0324 92.6434 59.47" stroke="#1E1E1E" stroke-width="4" stroke-miterlimit="10" stroke-linecap="round"/>
<path d="M118.04 37.3181C115.004 43.8016 111.524 50.8743 109.954 62.1528C106.67 83.6774 112.203 104.221 114.822 104.115C115.597 104.005 115.822 101.868 117.203 92.985C120.897 68.7698 118.964 77.4672 122.977 61.105C127.324 43.3794 141.363 30.8678 138.091 24.4845C136.989 22.2708 134.373 20.5337 132.012 20.6036C126.148 20.1147 121.89 29.14 118.04 37.3181Z" fill="#AAD663" stroke="#1E1E1E" stroke-width="4" stroke-miterlimit="10"/>
<path d="M182.814 138.278C178.941 131.411 171.44 126.91 163.163 122.519C151.745 116.452 138.81 110.865 132.169 99.3588C128.701 93.4944 125.822 89.9296 121.57 89.7354C120.239 89.6585 122.239 95.8094 117.357 96.7631C111.92 97.5303 108.625 91.562 106.849 92.0773C101.264 93.6598 99.2191 101.626 98.0687 104.7C90.272 128.039 62.8166 141.179 60.3493 161.119C58.195 168.306 57.4083 175.83 58.4706 183.358C63.0127 215.545 97.0029 237.488 134.543 232.19C172.082 226.893 198.673 196.401 194.131 164.214C193.035 154.573 188.869 145.63 182.814 138.278Z" fill="#FF933A"/>
<path d="M95 183.233C94.7523 175.803 97.7207 165.606 98.476 161.5C100.514 151.347 106.593 130.712 123.697 119.5C128.6 116.408 132.719 106.938 132.726 103.204C132.693 101.076 139.219 104.387 132.726 98.1044C126.532 92.046 125.452 90.0654 123.697 88.9799C123.399 88.7554 122.838 88.5679 122.278 88.3803C119.775 87.667 118.277 94.0801 115.995 94.9353C112.217 96.5351 110.201 89.8179 107.359 90.4856C102.161 91.4857 99.6037 103.641 98.476 107C90.582 130.511 62.8207 139.965 60.316 160.049C58.4365 165.647 56.6641 173.896 58.5156 183.233C66.8914 221.78 115.995 238.581 135.28 231.593C136.33 229.579 115.707 220.968 107.359 210C100.386 200.838 95.5833 191.15 95 183.233Z" fill="url(#paint0_linear)"/>
<path d="M181.977 207.358C175.931 214.134 159.384 230.469 134.452 233.179C100.24 236.93 61.136 213.641 56.8895 183.548C55.772 175.629 56.5773 167.977 58.8147 160.93C62 145.5 87.4156 130.779 95.5531 114.016C97.4453 110.249 98.2779 108.516 98.9989 105.991C100.329 100.15 99.0154 96.5658 101.812 93.4789C102.302 93.1404 103.474 91.8982 105.549 91.3361C107.624 90.7741 109.547 91.0412 111.016 91.9108C115.651 94.2183 115.901 101.721 116.43 101.647C117.222 101.535 114.709 93.2742 118.298 90.0755C119.733 88.7961 123.355 87.7465 125.955 88.9949C129.723 90.8863 132.049 97.8273 132.049 97.8273C134.937 106.843 147.71 113.386 163.723 121.896C172.163 126.359 179.81 130.933 183.758 137.915C186.693 141.539 193.616 150.523 195.553 164.25C197.788 180.088 192.223 192.181 190.104 196.249" stroke="#1E1E1E" stroke-width="4" stroke-miterlimit="10" stroke-linecap="round"/>
<path d="M112.418 190.368C108.521 190.368 122.206 210.081 135.021 210.081C151.521 210.082 158.537 184.14 157.021 182.582C155.794 181.235 147.521 195.582 128.223 192.19C108.925 188.798 113.548 189.195 112.418 190.368Z" fill="white" stroke="#1E1E1E" stroke-width="3" stroke-miterlimit="10"/>
<path d="M47.8779 197.405C36.3434 201.496 24.3092 196.791 20.9733 187.164C17.6373 177.537 53.2524 177.7 56.5205 171.081" stroke="#1E1E1E" stroke-width="5" stroke-miterlimit="10" stroke-linecap="round"/>
<path d="M102.228 166.666C111.835 165.311 118.524 156.424 117.168 146.817C115.812 137.21 106.925 130.521 97.3186 131.877C87.7117 133.232 81.0228 142.119 82.3785 151.726C83.7341 161.333 92.621 168.022 102.228 166.666Z" fill="white" stroke="#1E1E1E" stroke-width="1.5" stroke-miterlimit="10"/>
<path d="M113.567 141.677C113.661 137.044 109.981 133.213 105.348 133.119C100.715 133.026 96.8831 136.706 96.7895 141.339C96.696 145.972 100.376 149.803 105.009 149.897C109.642 149.99 113.474 146.311 113.567 141.677Z" fill="#1E1E1E"/>
<path d="M98.935 141.446C100.942 141.163 102.34 139.306 102.057 137.299C101.773 135.291 99.9165 133.894 97.9091 134.177C95.9017 134.46 94.504 136.317 94.7873 138.324C95.0706 140.332 96.9275 141.73 98.935 141.446Z" fill="white"/>
<path d="M153.893 159.376C163.5 158.02 170.189 149.133 168.833 139.526C167.477 129.919 158.59 123.23 148.984 124.586C139.377 125.942 132.688 134.829 134.044 144.436C135.399 154.042 144.286 160.731 153.893 159.376Z" fill="white" stroke="#1E1E1E" stroke-width="1.5" stroke-miterlimit="10"/>
<path d="M165.2 134.358C165.294 129.725 161.614 125.893 156.981 125.799C152.348 125.706 148.516 129.386 148.422 134.019C148.329 138.652 152.009 142.483 156.642 142.577C161.275 142.67 165.106 138.991 165.2 134.358Z" fill="#1E1E1E"/>
<path d="M153.721 130.008C154.014 132.085 152.677 133.863 150.6 134.156C148.523 134.449 146.745 133.111 146.452 131.034C146.159 128.957 147.497 127.179 149.574 126.886C151.354 126.37 153.428 127.931 153.721 130.008Z" fill="white"/>
<path d="M29.2619 196.341C30.0679 193.3 31.1894 188.994 34.1752 185.645C34.8005 184.825 35.8766 183.697 37.2285 182.775C40.3831 180.622 45.509 178.435 50.3193 177.512C53.4342 176.828 63.3308 175.188 69.3622 181.168C72.223 183.936 74.9033 188.925 72.9935 191.146C72.7851 191.419 72.5429 191.453 72.5766 191.693C73.0948 191.863 73.4045 192.308 73.9227 192.479C76.3725 194.085 79.6503 196.306 80.3988 199.859C80.9051 203.448 78.8544 206.421 76.9446 208.642C76.5277 209.189 76.1108 209.735 75.6939 210.282C76.2458 210.692 76.7977 211.102 77.3834 211.751C79.2754 214.656 76.9091 218.893 76.3175 219.953C72.0692 228.359 60.6182 229.487 58.4383 229.795C55.5319 230.205 52.0397 229.966 48.7898 229.692C47.545 229.624 46.5087 229.282 45.4724 228.941C44.1939 228.633 42.8816 228.087 41.8115 227.506C35.9767 224.67 31.4997 219.202 29.5124 213.871C26.4608 206.251 28.4222 199.143 29.2619 196.341Z" fill="#FF933A" stroke="#1E1E1E" stroke-width="4" stroke-miterlimit="10" stroke-linecap="round"/>
<path d="M50.9715 213.181C53.2587 211.848 57.4176 209.747 63.2423 208.925C68.8592 208.385 73.1945 209.288 75.7961 210.183" fill="#FF933A"/>
<path d="M50.9715 213.181C53.2587 211.848 57.4176 209.747 63.2423 208.925C68.8592 208.385 73.1945 209.288 75.7961 210.183" stroke="#1E1E1E" stroke-width="4" stroke-miterlimit="10" stroke-linecap="round"/>
<path d="M73.1499 191.427C69.8443 190.903 64.0328 190.238 57.0329 191.721C49.7892 193.238 44.56 196.699 41.8749 198.811" fill="#FF933A"/>
<path d="M73.1499 191.427C69.8443 190.903 64.0328 190.238 57.0329 191.721C49.7892 193.238 44.56 196.699 41.8749 198.811" stroke="#1E1E1E" stroke-width="4" stroke-miterlimit="10" stroke-linecap="round"/>
<path d="M195.819 154.751C199.356 153.728 203.264 152.244 207.315 150.09C213.727 146.711 218.694 142.713 222.272 139.224" stroke="#1E1E1E" stroke-width="5" stroke-miterlimit="10" stroke-linecap="round"/>
<mask id="path-23-inside-1" fill="white">
<path fill-rule="evenodd" clip-rule="evenodd" d="M247.694 115.026C254.729 112.455 261.912 110.08 261.912 110.08C261.912 110.08 274.168 108.554 277.473 100.471C280.779 92.3872 277.046 88.2784 264.571 89.5222C252.251 91.2267 242.424 98.222 239.307 103.567C234.072 97.1622 228.301 94.4759 215.329 104.591C203.16 115.899 205.017 136.782 214.025 148.333C223.032 159.884 234.698 157.058 244.834 149.154C254.651 141.498 255.817 126.46 247.694 115.026Z"/>
</mask>
<path fill-rule="evenodd" clip-rule="evenodd" d="M247.694 115.026C254.729 112.455 261.912 110.08 261.912 110.08C261.912 110.08 274.168 108.554 277.473 100.471C280.779 92.3872 277.046 88.2784 264.571 89.5222C252.251 91.2267 242.424 98.222 239.307 103.567C234.072 97.1622 228.301 94.4759 215.329 104.591C203.16 115.899 205.017 136.782 214.025 148.333C223.032 159.884 234.698 157.058 244.834 149.154C254.651 141.498 255.817 126.46 247.694 115.026Z" fill="#FF933A"/>
<path d="M261.912 110.08L261.418 106.11L261.029 106.159L260.656 106.282L261.912 110.08ZM247.694 115.026L246.321 111.269L241.396 113.069L244.433 117.343L247.694 115.026ZM277.473 100.471L281.176 101.985L281.176 101.985L277.473 100.471ZM264.571 89.5222L264.174 85.542L264.098 85.5495L264.023 85.56L264.571 89.5222ZM239.307 103.567L236.21 106.098L239.858 110.561L242.762 105.582L239.307 103.567ZM215.329 104.591L212.869 101.437L212.733 101.544L212.606 101.661L215.329 104.591ZM261.912 110.08C260.656 106.282 260.656 106.282 260.656 106.282C260.656 106.282 260.656 106.282 260.656 106.282C260.655 106.282 260.655 106.282 260.654 106.282C260.653 106.283 260.652 106.283 260.65 106.284C260.646 106.285 260.641 106.287 260.634 106.289C260.619 106.294 260.598 106.301 260.57 106.31C260.514 106.329 260.432 106.356 260.326 106.392C260.113 106.462 259.802 106.566 259.407 106.699C258.618 106.964 257.492 107.344 256.146 107.804C253.457 108.724 249.874 109.971 246.321 111.269L249.067 118.783C252.549 117.511 256.075 116.284 258.736 115.373C260.065 114.919 261.175 114.544 261.952 114.283C262.341 114.153 262.646 114.051 262.853 113.982C262.957 113.947 263.036 113.921 263.09 113.903C263.116 113.895 263.136 113.888 263.149 113.884C263.156 113.881 263.161 113.88 263.164 113.879C263.165 113.878 263.167 113.878 263.167 113.878C263.168 113.877 263.168 113.877 263.168 113.877C263.168 113.877 263.168 113.877 263.168 113.877C263.168 113.877 263.168 113.877 261.912 110.08ZM273.771 98.9568C272.74 101.478 270.113 103.334 266.967 104.593C265.477 105.189 264.056 105.576 263.003 105.812C262.481 105.929 262.061 106.007 261.781 106.054C261.642 106.077 261.538 106.093 261.476 106.102C261.445 106.107 261.424 106.109 261.414 106.111C261.409 106.111 261.407 106.112 261.408 106.112C261.408 106.112 261.409 106.111 261.411 106.111C261.412 106.111 261.413 106.111 261.414 106.111C261.415 106.111 261.416 106.111 261.416 106.111C261.417 106.11 261.418 106.11 261.912 110.08C262.406 114.049 262.407 114.049 262.409 114.049C262.409 114.049 262.411 114.048 262.412 114.048C262.414 114.048 262.416 114.048 262.418 114.047C262.423 114.047 262.428 114.046 262.434 114.045C262.447 114.044 262.462 114.042 262.481 114.039C262.517 114.034 262.566 114.028 262.625 114.019C262.744 114.002 262.907 113.977 263.109 113.943C263.513 113.875 264.076 113.77 264.754 113.618C266.103 113.316 267.952 112.815 269.94 112.02C273.747 110.496 278.901 107.547 281.176 101.985L273.771 98.9568ZM264.968 93.5025C267.882 93.2119 270.078 93.2581 271.667 93.5187C273.276 93.7825 273.984 94.2187 274.255 94.4643C274.368 94.5658 275.255 95.3276 273.771 98.9568L281.176 101.985C282.997 97.5303 283.671 92.196 279.624 88.5332C277.816 86.8965 275.459 86.0335 272.962 85.6242C270.446 85.2116 267.498 85.2106 264.174 85.542L264.968 93.5025ZM242.762 105.582C243.866 103.689 246.502 101.034 250.545 98.61C254.511 96.232 259.539 94.2565 265.119 93.4845L264.023 85.56C257.283 86.4924 251.237 88.8668 246.431 91.7487C241.701 94.5847 237.865 98.0995 235.852 101.551L242.762 105.582ZM217.789 107.746C224.072 102.846 227.773 101.754 229.996 101.878C231.988 101.989 233.797 103.146 236.21 106.098L242.404 101.035C239.582 97.5832 235.887 94.1943 230.442 93.8902C225.228 93.599 219.558 96.2214 212.869 101.437L217.789 107.746ZM217.179 145.873C213.264 140.853 210.798 133.617 210.735 126.337C210.673 119.085 212.986 112.229 218.052 107.522L212.606 101.661C205.503 108.261 202.66 117.501 202.736 126.405C202.812 135.281 205.777 144.262 210.87 150.793L217.179 145.873ZM242.374 146C237.627 149.701 232.963 151.848 228.817 152.044C224.955 152.226 220.98 150.748 217.179 145.873L210.87 150.793C216.076 157.469 222.439 160.354 229.195 160.035C235.668 159.729 241.905 156.511 247.293 152.308L242.374 146ZM244.433 117.343C251.598 127.428 250.146 139.938 242.374 146L247.293 152.308C259.156 143.057 260.036 125.492 250.955 112.709L244.433 117.343Z" fill="#1E1E1E" mask="url(#path-23-inside-1)"/>
<path d="M246.938 151.519C243.192 152.915 239.6 153.23 236.861 152.708C234.071 152.176 232.541 150.883 232.076 149.422C231.611 147.961 232.081 145.923 233.977 143.646C235.839 141.411 238.848 139.268 242.595 137.872C246.341 136.477 249.932 136.162 252.671 136.684C255.461 137.216 256.992 138.509 257.457 139.97C257.922 141.431 257.451 143.469 255.555 145.746C253.694 147.981 250.685 150.124 246.938 151.519Z" fill="#FF933A" stroke="#1E1E1E" stroke-width="4"/>
<path d="M223.285 108.587C223.285 108.587 221.597 112.404 222.762 120.008C223.236 123.105 226.118 125.572 224.651 131.261C223.184 136.95 218.077 138.811 218.077 138.811" stroke="#1E1E1E" stroke-width="4"/>
<path d="M234.696 127.393C232.907 127.817 230.832 127.129 228.897 125.108C226.977 123.103 225.397 119.957 224.739 116.119C224.081 112.282 224.502 108.661 225.611 105.939C226.73 103.194 228.416 101.615 230.205 101.191C231.995 100.767 234.07 101.455 236.005 103.476C237.925 105.481 239.505 108.627 240.163 112.465C240.82 116.303 240.4 119.923 239.29 122.645C238.172 125.39 236.485 126.969 234.696 127.393Z" fill="#FF933A" stroke="#1E1E1E" stroke-width="4"/>
<path d="M222.173 109.358C219.053 115.742 215.439 114.703 214.53 113.539C213.622 112.374 218.5 105 226.549 100.967C233.5 100.967 235.5 106.5 235.5 106.5C235.5 106.5 227.069 105.541 222.173 109.358Z" fill="#FF933A"/>
<path d="M243.991 123.345L245.638 122.862L245.481 121.129C245.285 118.97 245.861 117.701 246.553 116.984C247.274 116.238 248.421 115.777 249.896 115.837C252.863 115.957 256.588 118.217 258.199 122.892C259.872 128.198 255.973 135.222 248.273 138.089C240.564 140.96 233.486 138.01 231.796 132.702C231.707 132.422 231.708 132.022 231.938 131.426C232.171 130.821 232.586 130.16 233.104 129.507C233.612 128.866 234.161 128.305 234.591 127.899C234.803 127.699 234.981 127.541 235.102 127.436C235.12 127.421 235.137 127.407 235.153 127.393C235.176 127.38 235.202 127.366 235.23 127.35C235.387 127.263 235.617 127.137 235.905 126.981C236.482 126.67 237.29 126.243 238.21 125.784C240.085 124.849 242.305 123.839 243.991 123.345Z" fill="#FF933A" stroke="#1E1E1E" stroke-width="4"/>
<path d="M243.707 123.529C243.357 121.983 242.444 117.968 243.468 117.343C244.207 115.424 256.88 119.35 252.042 120.032C253.312 122.209 248.585 125.087 247.561 125.711C246.537 126.335 244.976 125.705 243.707 123.529Z" fill="#FF933A"/>
<path d="M36.8601 101.635L42.2823 105.537L47.7416 109.405L53.2382 113.24C54.1676 113.851 55.0208 114.563 56.0636 115.038C57.032 115.58 58.0004 116.122 59.0025 116.701C59.1409 116.779 59.32 116.752 59.4335 116.617C59.547 116.482 59.5239 116.234 59.3873 116.122C58.5341 115.409 57.6437 114.73 56.7906 114.018C55.9764 113.237 55.008 112.695 54.0804 112.049L48.5058 108.351L42.894 104.687L37.2804 101.057C37.1438 100.944 36.9274 101.004 36.8139 101.139C36.6632 101.308 36.6881 101.521 36.8601 101.635Z" fill="#333333"/>
<path d="M54.8272 99.5275C56.4913 101.153 58.1189 102.812 59.7813 104.473L62.2418 106.928C62.64 107.342 63.073 107.758 63.4712 108.173C63.8694 108.587 64.2291 109.071 64.6255 109.521C65.0219 109.971 65.4567 110.352 65.8915 110.732C66.3263 111.113 66.7611 111.493 67.1959 111.873C68.0656 112.634 68.9718 113.361 69.9147 114.054C70.0504 114.132 70.1897 114.139 70.3344 114.039C70.481 113.903 70.4918 113.688 70.3945 113.54C69.6732 112.607 68.8786 111.743 68.1189 110.88C67.7207 110.466 67.3243 110.016 66.9261 109.601C66.5279 109.187 66.1298 108.772 65.6601 108.39C65.2253 108.01 64.7539 107.663 64.2842 107.281C63.8494 106.901 63.4164 106.485 63.0164 106.106L60.4826 103.72C58.7818 102.129 57.081 100.537 55.415 98.9475C53.7142 97.3562 52.05 95.7308 50.3858 94.1055C50.2519 93.9912 50.0429 93.9806 49.8964 94.1167C49.7499 94.2527 49.7739 94.4691 49.9061 94.6191C51.5006 96.241 53.1648 97.8663 54.8272 99.5275Z" fill="#333333"/>
<defs>
<linearGradient id="paint0_linear" x1="56.636" y1="170.307" x2="148.071" y2="157.404" gradientUnits="userSpaceOnUse">
<stop stop-color="#FE8C00"/>
<stop offset="1" stop-color="#F83600"/>
</linearGradient>
</defs>
</svg>
