<svg width="10" height="1" xmlns="http://www.w3.org/2000/svg" fill="none">
 <defs>
  <linearGradient id="paint0_linear" x1="0" y1="0.5" x2="1" y2="0.5">
   <stop stop-color="#FE8C00"/>
   <stop offset="1" stop-color="#F83600"/>
  </linearGradient>
 </defs>
 <g>
  <title>Layer 1</title>
  <path d="m42.9936,15.1519c0.5,1 0.9,2.4 1.6,5.4c1.3,5.1 1,5.8 0.5,6.2c-0.5,0.3 -2.4,-1.2 -4.1,-4.1c-0.9,-1.4 -0.8936,-1.6519 -1.4936,-3.6519c-0.3,-0.9 -1.1064,-2.4481 -1.3064,-3.0481c-0.5,-1.8 -1.6,-5.8 -0.6,-6.19998c0.8,-0.5 3.8,2.29998 5.4,5.39998z" fill="#72AE0F" id="svg_1"/>
  <path d="m39.4933,18.9519c3.007,7.0481 1.8,9.1 2.2,9.1c1.3,0 2.3,-8 2.4,-9.3c0.1,-0.9 -0.1,-1.7 -0.1,-1.7c-0.1,-0.5 -0.2,-0.9 -0.4,-1.3c-0.9,-1.9 -2.8,-6.29999 -4.9,-5.99999c-0.9,0.1 -1.5999,1.09999 -1.7999,1.99999c-0.2,1.1 -0.3934,2.0481 0.6066,2.7481" stroke="#1E1E1E" stroke-width="3" stroke-miterlimit="10" stroke-linecap="round" id="svg_2"/>
  <path d="m47.8925,7.65199c-1.5,2.3 -3.2,4.80001 -4.4,9.00001c-2.4,8 -1.4,16.1 -0.4,16.2c0.3,0 0.5,-0.8 1.5,-4.1c2.7,-9 1.515,-5.788 3.9075,-11.752c2.6075,-6.5 8.5925,-10.54803 7.6925,-13.14803c-0.3,-0.9 -1.2,-1.69999 -2.1,-1.79999c-2.2,-0.5 -4.3,2.70001 -6.2,5.60001z" fill="#AAD663" stroke="#1E1E1E" stroke-width="3" stroke-miterlimit="10" id="svg_3"/>
  <path d="m67.293,49.0521c-1.1,-2.8 -3.7,-4.9 -6.6,-7c-4,-2.9 -8.6,-5.7 -10.5,-10.4c-1,-2.4 -1.9,-3.9 -3.5,-4.2c-0.5,-0.1 -0.7,0 -2.6,0.1c-2.1,0 -2.4,-0.1 -3.1,0c-2.2,0.3 -3.4,3.2 -4,4.3c-4.2,8.4 -15.3,11.9 -17.3,19.3c-1.2,2.6 -1.9,5.4 -1.9,8.3c0,12.4 11.7,22.5 26.2,22.5c14.5,0 26.2,-10.1 26.2,-22.5c0.1,-3.7 -1,-7.3 -2.9,-10.4z" fill="#FF933A" id="svg_4"/>
  <path d="m35.8925,60.4521c0.3,-2.8 1,-5 1.5,-6.5c1.3,-3.7 4.2,-12.4 11.2,-15.7c2,-0.9 4.1,-1.3 4.3,-2.7c0.1,-0.8 -0.5,-1.3 -2.6,-4c-2,-2.6 -2.3,-3.4 -2.9,-3.9c-0.1,-0.1 -0.3,-0.2 -0.5,-0.3c-0.9,-0.4 -1.6,0.2 -2.5,0.4c-1.5,0.4 -2.1,-0.5 -3.2,-0.4c-2,0.1 -3.4,3.1 -4,4.3c-4.2,8.4 -15.3,11.9 -17.3,19.3c-1,2 -2.1,5 -1.9,8.6c1.1,14.9 25.1,23.8 26.2,22.2c0.5,-0.7 -4.1,-3.3 -6.7,-10.3c-1.6,-4.1 -1.8,-8 -1.6,-11z" fill="url(#paint0_linear)" id="svg_5"/>
  <path d="m64.38282,76.38747c-2.6,2.2 -9.6,7.4 -19,7.1c-12.9,-0.4 -26.1999,-11.1 -26.1999,-22.5c0,-3 0.6999,-5.8 1.8999,-8.3c1.5,-6.8 12.2001,-9.7 16.1001,-15.5c0.9,-1.3 1.2999,-1.9 1.6999,-2.8c0.8,-2.1 0.5,-3.5 1.7,-4.5c0.2,-0.1 0.7,-0.5 1.5,-0.6c0.8,-0.1 1.5,0.1 2,0.5c1.6,1.1 1.3,3.9 1.5,3.9c0.3,0 -0.2,-3.2 1.3,-4.2c0.6,-0.4 2.0001,-0.6 2.9001,0c1.3,0.9 1.7999,3.6 1.7999,3.6c0.6,3.5 5,6.6 10.5,10.6c2.9,2.1 5.5001,4.2 6.6001,7c0.9,1.5 3,5.2 3,10.4c0,6 -2.7,10.2 -3.7,11.6" stroke="#1E1E1E" stroke-width="3" stroke-miterlimit="10" stroke-linecap="round" id="svg_6"/>
  <path d="m42.293,70.752c0.1,0.1 1.1,1.7 3,1.7c1.3,0 2.5,-0.7 3.1,-1.9" stroke="#1E1E1E" stroke-width="2" stroke-miterlimit="10" stroke-linecap="round" id="svg_7"/>
  <path d="m34.0682,67c-0.9508,0.9508 -3.0252,4.0624 -3.0252,5.4454c0,1.3829 1.3829,2.5066 3.0252,2.5066c1.6422,0 3.0252,-1.1237 3.0252,-2.5066c0,-1.383 -2.0745,-4.4946 -3.0252,-5.4454z" fill="white" stroke="#1E1E1E" stroke-width="2" stroke-miterlimit="10" id="svg_12"/>
 </g>
</svg>